<?xml version="1.0" encoding="utf-8"?>
<!-- Generator: Adobe Illustrator 16.0.0, SVG Export Plug-In . SVG Version: 6.00 Build 0)  -->
<!DOCTYPE svg PUBLIC "-//W3C//DTD SVG 1.1//EN" "http://www.w3.org/Graphics/SVG/1.1/DTD/svg11.dtd">
<svg version="1.1" id="Layer_2" xmlns="http://www.w3.org/2000/svg" xmlns:xlink="http://www.w3.org/1999/xlink" x="0px" y="0px"
	 width="75.563px" height="27.708px" viewBox="0 0 75.563 27.708" enable-background="new 0 0 75.563 27.708" xml:space="preserve">
<path fill="#C6907D" d="M5.26,9.151c0,2.132-1.137,3.269-2.896,3.269c-1.297,0-2.079-0.675-2.363-1.315l1.066-0.942
	c0.232,0.498,0.693,0.8,1.244,0.8c0.782,0,1.333-0.605,1.333-1.742V0.8H5.26V9.151z"/>
<path fill="#C6907D" d="M9.347,7.108h5.225c-0.018-1.386-1.155-2.399-2.523-2.399C10.467,4.708,9.436,5.899,9.347,7.108
	 M16.136,7.677c0,0.177,0,0.443-0.036,0.781H9.347c0.072,1.404,1.208,2.559,2.808,2.559c0.996,0,1.777-0.461,2.399-1.137
	l0.995,0.941c-0.799,0.978-1.972,1.599-3.447,1.599c-2.666,0-4.425-2.061-4.425-4.548c0-2.506,1.759-4.549,4.354-4.549
	C14.323,3.323,16.136,5.1,16.136,7.677"/>
<rect x="18.518" fill="#C6907D" width="1.563" height="12.207"/>
<path fill="#C6907D" d="M24.844,12.207h-1.599V3.535h1.599V12.207z M22.8,2.275L24.826,0h1.777l-2.452,2.275H22.8z"/>
<g>
	<path fill="#C6907D" d="M35.577,6.415v5.792h-1.563V6.841c0-1.493-1.05-2.097-2.169-2.097c-1.208,0-2.292,0.852-2.292,2.062v5.401
		h-1.563V3.536h1.493v0.143v0.871c0.516-0.623,1.403-1.191,2.647-1.191C34.173,3.358,35.577,4.407,35.577,6.415"/>
</g>
<path fill="#C6907D" d="M46.417,12.207H44.41L40.589,7.48l3.501-3.944h2.025l-3.643,3.962L46.417,12.207z M38.546,0h1.564v12.207
	h-1.564V0z"/>
<g>
	<path fill="#C6907D" d="M48.657,7.872c0,1.813,1.208,3.163,2.878,3.163s2.878-1.35,2.878-3.163c0-1.794-1.208-3.164-2.878-3.164
		S48.657,6.077,48.657,7.872 M55.978,7.872c0,2.435-1.777,4.549-4.442,4.549c-2.665,0-4.443-2.114-4.443-4.549
		c0-2.487,1.778-4.549,4.443-4.549C54.201,3.323,55.978,5.384,55.978,7.872"/>
	<path fill="#C6907D" d="M60.314,12.296l-3.216-8.76h1.74l2.275,6.77c0.054,0.142,0.107,0.267,0.16,0.426h0.019
		c0.053-0.142,0.088-0.284,0.141-0.426l2.311-6.77h1.741l-3.27,8.76H60.314z"/>
	<path fill="#C6907D" d="M70.088,2.274L72.115,0h1.776l-2.452,2.274H70.088z M68.099,7.872c0,1.776,1.332,3.145,2.985,3.145
		c1.776,0,2.984-1.369,2.984-3.145c0-1.759-1.208-3.127-2.984-3.127C69.431,4.744,68.099,6.095,68.099,7.872 M74.087,4.833
		c-0.019-0.231-0.036-0.444-0.036-0.676V3.536h1.511v8.67h-1.511v-0.586c0-0.248,0.017-0.479,0.036-0.711
		c-0.533,0.818-1.618,1.511-3.11,1.511c-2.719,0-4.442-2.061-4.442-4.549c0-2.487,1.723-4.514,4.442-4.514
		C72.488,3.358,73.572,4.051,74.087,4.833"/>
</g>
<path fill="#C6907D" d="M5.456,17.58H5.402l-1.901,5.402h3.785L5.456,17.58z M3.021,24.386l-1.173,3.322H0.125l4.318-11.46h2.096
	l4.087,11.46H8.885l-1.119-3.322H3.021z"/>
<g>
	<path fill="#C6907D" d="M17.06,18.896l-0.018,1.509c-0.213-0.054-0.462-0.089-0.728-0.089c-1.208,0-2.364,0.728-2.364,2.097v5.294
		h-1.563v-8.671h1.493v0.16v0.835c0.515-0.604,1.368-1.173,2.576-1.173C16.669,18.859,16.865,18.877,17.06,18.896"/>
	<path fill="#C6907D" d="M25.306,20.228l-0.942,1.03c-0.391-0.532-1.137-1.012-2.15-1.012c-1.723,0-2.967,1.297-2.967,3.109
		s1.244,3.163,2.985,3.163c0.853,0,1.564-0.302,2.115-0.96l0.996,0.96c-0.765,0.871-1.76,1.404-3.11,1.404
		c-2.772,0-4.567-2.062-4.567-4.549c0-2.488,1.76-4.514,4.549-4.514C23.547,18.859,24.594,19.409,25.306,20.228"/>
	<path fill="#C6907D" d="M28.807,19.979c0.48-0.568,1.368-1.12,2.576-1.12c2.043,0,3.448,1.049,3.448,3.057v5.792h-1.565v-5.366
		c0-1.493-1.048-2.097-2.167-2.097c-1.208,0-2.292,0.853-2.292,2.062v5.402h-1.564V15.501h1.564v3.5V19.979z"/>
	<path fill="#C6907D" d="M37.871,19.037h1.546v8.671h-1.546V19.037z M39.559,16.566c0,0.516-0.427,0.942-0.906,0.942
		c-0.516,0-0.943-0.426-0.943-0.942s0.427-0.923,0.943-0.923C39.131,15.643,39.559,16.05,39.559,16.566"/>
</g>
<polygon fill="#C6907D" points="46.418,19.038 46.418,20.387 44.48,20.387 44.48,27.708 42.917,27.708 42.917,20.387 41.584,20.387 
	41.584,19.038 42.917,19.038 42.917,16.745 44.48,16.745 44.48,19.038 "/>
<g>
	<path fill="#C6907D" d="M49.208,22.609h5.224c-0.016-1.386-1.155-2.399-2.522-2.399C50.328,20.209,49.297,21.4,49.208,22.609
		 M55.997,23.177c0,0.177,0,0.444-0.036,0.782h-6.752c0.072,1.403,1.209,2.559,2.809,2.559c0.995,0,1.776-0.462,2.399-1.137
		l0.994,0.942c-0.799,0.977-1.973,1.599-3.447,1.599c-2.666,0-4.425-2.062-4.425-4.549c0-2.506,1.759-4.549,4.354-4.549
		C54.184,18.823,55.997,20.6,55.997,23.177"/>
</g>
<path fill="#C6907D" d="M66.25,27.708h-2.008l-3.821-4.726l3.501-3.945h2.025l-3.643,3.962L66.25,27.708z M58.378,15.501h1.564
	v12.208h-1.564V15.501z"/>
<polygon fill="#C6907D" points="72.025,19.038 72.025,20.387 70.088,20.387 70.088,27.708 68.525,27.708 68.525,20.387 
	67.193,20.387 67.193,19.038 68.525,19.038 68.525,16.745 70.088,16.745 70.088,19.038 "/>
</svg>
