<?xml version="1.0" encoding="UTF-8"?>
<!DOCTYPE svg  PUBLIC '-//W3C//DTD SVG 1.1//EN'  'http://www.w3.org/Graphics/SVG/1.1/DTD/svg11.dtd'>
<svg width="144.28px" height="111.71px" enable-background="new 0 0 144.276 111.709" version="1.1" viewBox="0 0 144.276 111.709" xml:space="preserve" xmlns="http://www.w3.org/2000/svg">
	<rect x="44.793" y="36.587" width="1.563" height="71.353" fill="#C6907D"/>
	<rect x="48.515" y="12.452" width="1.563" height="93.173" fill="#C6907D"/>
	<rect x="52.237" y="23.507" width="1.563" height="78.699" fill="#C6907D"/>
	<rect x="55.959" width="1.563" height="97.556" fill="#C6907D"/>
	<rect x="41.07" y="23.507" width="1.563" height="85.78" fill="#C6907D"/>
	<path d="M38.716,52.52h-1.559v25.989c0,7.917-1.659,13.408-8.81,13.408c-4.596,0-7.915-3.192-9.064-7.918L0,90.515   c3.319,12.381,14.175,21.194,29.369,21.194c3.332,0,6.293-0.358,9.347-0.995V52.52z" fill="#C6907D"/>
	<path d="m73.974 59.56c0 2.132-1.137 3.269-2.896 3.269-1.297 0-2.079-0.675-2.363-1.315l1.066-0.942c0.232 0.498 0.693 0.8 1.244 0.8 0.782 0 1.333-0.605 1.333-1.742v-8.422h1.617v8.352z" fill="#C6907D"/>
	<path d="m78.061 57.516h5.225c-0.018-1.386-1.155-2.399-2.523-2.399-1.582 0-2.613 1.191-2.702 2.399m6.789 0.569c0 0.177 0 0.443-0.036 0.781h-6.753c0.072 1.404 1.208 2.559 2.808 2.559 0.996 0 1.777-0.461 2.399-1.137l0.995 0.941c-0.799 0.978-1.972 1.599-3.447 1.599-2.666 0-4.425-2.061-4.425-4.548 0-2.506 1.759-4.549 4.354-4.549 2.292 0 4.105 1.777 4.105 4.354" fill="#C6907D"/>
	<rect x="87.232" y="50.408" width="1.563" height="12.207" fill="#C6907D"/>
	<path d="m93.558 62.615h-1.599v-8.672h1.599v8.672zm-2.044-9.932l2.026-2.275h1.777l-2.452 2.275h-1.351z" fill="#C6907D"/>
		<path d="m104.29 56.823v5.792h-1.563v-5.365c0-1.493-1.05-2.097-2.169-2.097-1.208 0-2.292 0.852-2.292 2.062v5.401h-1.563v-8.671h1.493v1.014c0.516-0.623 1.403-1.191 2.647-1.191 2.043-2e-3 3.447 1.047 3.447 3.055" fill="#C6907D"/>
	<path d="m115.13 62.615h-2.008l-3.821-4.727 3.501-3.944h2.025l-3.643 3.962 3.946 4.709zm-7.871-12.207h1.564v12.207h-1.564v-12.207z" fill="#C6907D"/>
	<g fill="#C6907D">
		<path d="m117.37 58.28c0 1.813 1.208 3.163 2.878 3.163s2.878-1.35 2.878-3.163c0-1.794-1.208-3.164-2.878-3.164s-2.878 1.369-2.878 3.164m7.321 0c0 2.435-1.777 4.549-4.442 4.549s-4.443-2.114-4.443-4.549c0-2.487 1.778-4.549 4.443-4.549s4.442 2.061 4.442 4.549"/>
		<path d="m129.03 62.705l-3.216-8.76h1.74l2.275 6.77c0.054 0.142 0.107 0.267 0.16 0.426h0.019c0.053-0.142 0.088-0.284 0.141-0.426l2.311-6.77h1.741l-3.27 8.76h-1.901z"/>
		<path d="m138.8 52.683l2.026-2.274h1.776l-2.452 2.274h-1.35zm-1.989 5.597c0 1.776 1.332 3.145 2.985 3.145 1.776 0 2.984-1.369 2.984-3.145 0-1.759-1.208-3.127-2.984-3.127-1.653-1e-3 -2.985 1.35-2.985 3.127m5.988-3.038c-0.019-0.231-0.036-0.444-0.036-0.676v-0.622h1.511v8.67h-1.511v-0.586c0-0.248 0.017-0.479 0.036-0.711-0.533 0.818-1.618 1.511-3.11 1.511-2.719 0-4.442-2.061-4.442-4.549 0-2.487 1.723-4.514 4.442-4.514 1.511 1e-3 2.595 0.694 3.11 1.477"/>
	</g>
	<path d="m74.169 67.988h-0.053l-1.901 5.402h3.785l-1.831-5.402zm-2.434 6.806l-1.173 3.322h-1.724l4.318-11.46h2.096l4.087 11.46h-1.742l-1.119-3.322h-4.743z" fill="#C6907D"/>
	<g fill="#C6907D">
		<path d="m85.774 69.304l-0.018 1.509c-0.213-0.054-0.462-0.089-0.728-0.089-1.208 0-2.364 0.728-2.364 2.097v5.294h-1.563v-8.671h1.493v0.995c0.515-0.604 1.368-1.173 2.576-1.173 0.213 1e-3 0.409 0.019 0.604 0.038"/>
		<path d="m94.02 70.636l-0.942 1.03c-0.391-0.532-1.137-1.012-2.15-1.012-1.723 0-2.967 1.297-2.967 3.109s1.244 3.163 2.985 3.163c0.853 0 1.564-0.302 2.115-0.96l0.996 0.96c-0.765 0.871-1.76 1.404-3.11 1.404-2.772 0-4.567-2.062-4.567-4.549 0-2.488 1.76-4.514 4.549-4.514 1.332 0 2.379 0.55 3.091 1.369"/>
		<path d="m97.521 70.387c0.48-0.568 1.368-1.12 2.576-1.12 2.043 0 3.448 1.049 3.448 3.057v5.792h-1.565v-5.366c0-1.493-1.048-2.097-2.167-2.097-1.208 0-2.292 0.853-2.292 2.062v5.402h-1.564v-12.208h1.564v4.478z"/>
		<path d="m106.58 69.445h1.546v8.671h-1.546v-8.671zm1.688-2.47c0 0.516-0.427 0.942-0.906 0.942-0.516 0-0.943-0.426-0.943-0.942s0.427-0.923 0.943-0.923c0.479-1e-3 0.906 0.406 0.906 0.923"/>
	</g>
	<polygon points="115.13 69.446 115.13 70.795 113.19 70.795 113.19 78.116 111.63 78.116 111.63 70.795 110.3 70.795 110.3 69.446 111.63 69.446 111.63 67.153 113.19 67.153 113.19 69.446" fill="#C6907D"/>
		<path d="m117.92 73.017h5.224c-0.016-1.386-1.155-2.399-2.522-2.399-1.582 0-2.613 1.19-2.702 2.399m6.788 0.568c0 0.177 0 0.444-0.036 0.782h-6.752c0.072 1.403 1.209 2.559 2.809 2.559 0.995 0 1.776-0.462 2.399-1.137l0.994 0.942c-0.799 0.977-1.973 1.599-3.447 1.599-2.666 0-4.425-2.062-4.425-4.549 0-2.506 1.759-4.549 4.354-4.549 2.291-1e-3 4.104 1.776 4.104 4.353" fill="#C6907D"/>
	<path d="m134.96 78.116h-2.008l-3.821-4.726 3.501-3.945h2.025l-3.643 3.962 3.946 4.709zm-7.872-12.207h1.564v12.208h-1.564v-12.208z" fill="#C6907D"/>
	<polygon points="140.74 69.446 140.74 70.795 138.8 70.795 138.8 78.116 137.24 78.116 137.24 70.795 135.91 70.795 135.91 69.446 137.24 69.446 137.24 67.153 138.8 67.153 138.8 69.446" fill="#C6907D"/>
</svg>